<svg xmlns="http://www.w3.org/2000/svg" width="31.973" height="13.687" viewBox="0 0 31.973 13.687"><defs><style>.a{fill:#fff;}.b{fill:#fbb03b;}</style></defs><g transform="translate(-1710.2 -144)"><path class="a" d="M35.23,0C28.846,0,27.1,10.915,26.92,13.687h4.639c.323-3.671,1.564-8.515,3.691-8.564,3.128-.078,3.2,6.609,3.353,8.564h4.639a30.174,30.174,0,0,0-.978-6.252C40.421.978,37.268,0,35.23,0Z" transform="translate(1698.931 144)"/><path class="a" d="M17,2.026c-1.2-.616-4.746-2.082-8.046-.4S3.38,7.765,2.29,14.119H7.007c.807-4,2.126-6.917,3.852-7.821a4.584,4.584,0,0,1,3.818.215A16.336,16.336,0,0,1,17,2.026Z" transform="translate(1711.522 143.568)"/><path class="b" d="M4.566,2.283A2.283,2.283,0,1,0,2.283,4.565,2.283,2.283,0,0,0,4.566,2.283Z" transform="translate(1710.2 144)"/></g></svg>